<svg width="29" height="29" viewBox="0 0 29 29" fill="none" xmlns="http://www.w3.org/2000/svg">
<path d="M13.2916 15.7083H7.24996C6.9076 15.7083 6.62082 15.5923 6.38963 15.3603C6.15844 15.1283 6.04244 14.8416 6.04163 14.5C6.04082 14.1584 6.15682 13.8717 6.38963 13.6397C6.62244 13.4077 6.90921 13.2917 7.24996 13.2917H13.2916V7.25C13.2916 6.90764 13.4076 6.62086 13.6396 6.38967C13.8716 6.15847 14.1584 6.04247 14.5 6.04167C14.8415 6.04086 15.1287 6.15686 15.3615 6.38967C15.5943 6.62247 15.7099 6.90925 15.7083 7.25V13.2917H21.75C22.0923 13.2917 22.3795 13.4077 22.6115 13.6397C22.8435 13.8717 22.9591 14.1584 22.9583 14.5C22.9575 14.8416 22.8415 15.1287 22.6103 15.3615C22.3791 15.5943 22.0923 15.7099 21.75 15.7083H15.7083V21.75C15.7083 22.0924 15.5923 22.3795 15.3603 22.6115C15.1283 22.8435 14.8415 22.9591 14.5 22.9583C14.1584 22.9575 13.8716 22.8415 13.6396 22.6103C13.4076 22.3791 13.2916 22.0924 13.2916 21.75V15.7083Z" fill="white"/>
</svg>
